<svg height="304" node-id="1" sillyvg="true" template-height="304" template-width="282" version="1.1" viewBox="0 0 282 304" width="282" xmlns="http://www.w3.org/2000/svg" xmlns:xlink="http://www.w3.org/1999/xlink"><defs node-id="76"><linearGradient gradientUnits="objectBoundingBox" id="linearGradient-1" node-id="7" spreadMethod="pad" x1="0.5" x2="0.5" y1="0" y2="1"><stop offset="0" stop-color="#59d0fc"/><stop offset="1" stop-color="#4b79ff"/></linearGradient><linearGradient gradientUnits="objectBoundingBox" id="linearGradient-2" node-id="10" spreadMethod="pad" x1="0.1437932" x2="0.5" y1="0" y2="1"><stop offset="0" stop-color="#59d0fc"/><stop offset="1" stop-color="#4b79ff"/></linearGradient><linearGradient gradientUnits="objectBoundingBox" id="linearGradient-3" node-id="13" spreadMethod="pad" x1="0.5" x2="0.5" y1="0" y2="1"><stop offset="0" stop-color="#59d0fc"/><stop offset="1" stop-color="#4b79ff"/></linearGradient><linearGradient gradientUnits="objectBoundingBox" id="linearGradient-4" node-id="16" spreadMethod="pad" x1="0.1437932" x2="0.5" y1="0.007017457" y2="0.99298257"><stop offset="0" stop-color="#59d0fc"/><stop offset="1" stop-color="#4b79ff"/></linearGradient><linearGradient gradientUnits="objectBoundingBox" id="linearGradient-5" node-id="19" spreadMethod="pad" x1="0.5" x2="0.5" y1="0" y2="1"><stop offset="0" stop-color="#59d0fc"/><stop offset="1" stop-color="#4b79ff"/></linearGradient><linearGradient gradientUnits="objectBoundingBox" id="linearGradient-6" node-id="22" spreadMethod="pad" x1="0.5" x2="0.5" y1="0" y2="1"><stop offset="0" stop-color="#59d0fc"/><stop offset="1" stop-color="#4b79ff"/></linearGradient><linearGradient gradientUnits="objectBoundingBox" id="linearGradient-7" node-id="25" spreadMethod="pad" x1="0.5" x2="0.5" y1="0" y2="1"><stop offset="0" stop-color="#59d0fc"/><stop offset="1" stop-color="#4b79ff"/></linearGradient><linearGradient gradientUnits="objectBoundingBox" id="linearGradient-8" node-id="28" spreadMethod="pad" x1="0.5" x2="0.5" y1="0" y2="1"><stop offset="0" stop-color="#59d0fc"/><stop offset="1" stop-color="#4b79ff"/></linearGradient><linearGradient gradientUnits="objectBoundingBox" id="linearGradient-9" node-id="31" spreadMethod="pad" x1="0.5" x2="0.5" y1="0" y2="1"><stop offset="0" stop-color="#59d0fc"/><stop offset="1" stop-color="#4b79ff"/></linearGradient><linearGradient gradientUnits="objectBoundingBox" id="linearGradient-10" node-id="34" spreadMethod="pad" x1="0.5" x2="0.5" y1="0" y2="1"><stop offset="0" stop-color="#59d0fc"/><stop offset="1" stop-color="#4b79ff"/></linearGradient><linearGradient gradientUnits="objectBoundingBox" id="linearGradient-11" node-id="37" spreadMethod="pad" x1="0.5" x2="0.5" y1="0" y2="1.2101014"><stop offset="0" stop-color="#59d0fc"/><stop offset="1" stop-color="#4b79ff"/></linearGradient><linearGradient gradientUnits="objectBoundingBox" id="linearGradient-12" node-id="40" spreadMethod="pad" x1="0.8295485" x2="0.33441615" y1="0.54486686" y2="0.34175876"><stop offset="0" stop-color="#59d0fc"/><stop offset="1" stop-color="#4b79ff"/></linearGradient><linearGradient gradientUnits="objectBoundingBox" id="linearGradient-13" node-id="43" spreadMethod="pad" x1="0.5" x2="0.5" y1="0" y2="1"><stop offset="0" stop-color="#59d0fc"/><stop offset="1" stop-color="#4b79ff"/></linearGradient></defs><g node-id="155"><g node-id="156"><g node-id="157"><path d="M 219.50 127.00 L 280.55 162.25 L 280.55 232.75 L 219.50 268.00 L 158.45 232.75 L 158.45 162.25 Z" fill="url(#linearGradient-1)" fill-opacity="0.07781111" fill-rule="evenodd" group-id="1,2,3" id="多边形复制-2" node-id="49" stroke="url(#linearGradient-2)" stroke-linecap="butt" stroke-opacity="0.77811104" stroke-width="1" target-height="141" target-width="122.10957" target-x="158.4452" target-y="127"/></g><g node-id="158"><path d="M 143.00 162.00 L 204.49 197.25 L 204.49 267.75 L 143.00 303.00 L 81.51 267.75 L 81.51 197.25 Z" fill="url(#linearGradient-3)" fill-opacity="0.07781111" fill-rule="evenodd" group-id="1,2,4" id="多边形复制-3" node-id="50" stroke="url(#linearGradient-4)" stroke-linecap="butt" stroke-opacity="0.77811104" stroke-width="1" target-height="141" target-width="122.97561" target-x="81.5122" target-y="162"/></g><g node-id="159"><path d="M 62.50 127.00 L 123.55 162.25 L 123.55 232.75 L 62.50 268.00 L 1.45 232.75 L 1.45 162.25 Z" fill="url(#linearGradient-1)" fill-opacity="0.07781111" fill-rule="evenodd" group-id="1,2,5" id="多边形复制-4" node-id="51" stroke="url(#linearGradient-2)" stroke-linecap="butt" stroke-opacity="0.77811104" stroke-width="1" target-height="141" target-width="122.10959" target-x="1.4452095" target-y="127"/></g><g node-id="160"><path d="M 62.50 47.00 L 123.55 82.25 L 123.55 152.75 L 62.50 188.00 L 1.45 152.75 L 1.45 82.25 Z" fill="url(#linearGradient-1)" fill-opacity="0.07781111" fill-rule="evenodd" group-id="1,2,6" id="多边形复制-5" node-id="52" stroke="url(#linearGradient-2)" stroke-linecap="butt" stroke-opacity="0.77811104" stroke-width="1" target-height="141" target-width="122.10959" target-x="1.4452095" target-y="47"/></g><g node-id="161"><path d="M 158.00 162.00 L 219.00 197.33 L 219.00 268.00" fill="none" group-id="1,2,7" id="路径-55复制-2" node-id="53" stroke="url(#linearGradient-5)" stroke-dasharray="8 8" stroke-linecap="round" stroke-opacity="0.27269346" stroke-width="2" target-height="106" target-width="61" target-x="158" target-y="162"/></g><g node-id="162"><path d="M 82.00 197.00 L 143.00 232.33 L 143.00 303.00" fill="none" group-id="1,2,8" id="路径-55复制-3" node-id="54" stroke="url(#linearGradient-5)" stroke-dasharray="8 8" stroke-linecap="round" stroke-opacity="0.27269346" stroke-width="2" target-height="106" target-width="61" target-x="82" target-y="197"/></g><g node-id="163"><path d="M 1.00 162.00 L 63.00 197.33 L 63.00 268.00" fill="none" group-id="1,2,9" id="路径-55复制-4" node-id="55" stroke="url(#linearGradient-6)" stroke-dasharray="8 8" stroke-linecap="round" stroke-opacity="0.27269346" stroke-width="2" target-height="106" target-width="62" target-x="1" target-y="162"/></g><g node-id="164"><path d="M 1.00 83.00 L 63.00 118.00 L 63.00 188.00" fill="none" group-id="1,2,10" id="路径-55复制-5" node-id="56" stroke="url(#linearGradient-7)" stroke-dasharray="8 8" stroke-linecap="round" stroke-opacity="0.27269346" stroke-width="2" target-height="105" target-width="62" target-x="1" target-y="83"/></g><g node-id="165"><path d="M 219.00 197.00 L 280.00 162.00" fill="none" group-id="1,2,11" id="路径-56复制-2" node-id="57" stroke="url(#linearGradient-8)" stroke-dasharray="8 8" stroke-linecap="round" stroke-opacity="0.27269346" stroke-width="2" target-height="35" target-width="61" target-x="219" target-y="162"/></g><g node-id="166"><path d="M 143.00 232.00 L 204.00 197.00" fill="none" group-id="1,2,12" id="路径-56复制-3" node-id="58" stroke="url(#linearGradient-8)" stroke-dasharray="8 8" stroke-linecap="round" stroke-opacity="0.27269346" stroke-width="2" target-height="35" target-width="61" target-x="143" target-y="197"/></g><g node-id="167"><path d="M 63.00 197.00 L 124.00 162.00" fill="none" group-id="1,2,13" id="路径-56复制-4" node-id="59" stroke="url(#linearGradient-8)" stroke-dasharray="8 8" stroke-linecap="round" stroke-opacity="0.27269346" stroke-width="2" target-height="35" target-width="61" target-x="63" target-y="162"/></g><g node-id="168"><path d="M 63.00 118.00 L 124.00 83.00" fill="none" group-id="1,2,14" id="路径-56复制-5" node-id="60" stroke="url(#linearGradient-8)" stroke-dasharray="8 8" stroke-linecap="round" stroke-opacity="0.27269346" stroke-width="2" target-height="35" target-width="61" target-x="63" target-y="83"/></g><g node-id="169"><path d="M 143.00 1.00 L 204.49 36.25 L 204.49 106.75 L 143.00 142.00 L 81.51 106.75 L 81.51 36.25 Z" fill="url(#linearGradient-3)" fill-opacity="0.07781111" fill-rule="evenodd" group-id="1,2,15" id="多边形" node-id="61" stroke="url(#linearGradient-4)" stroke-linecap="butt" stroke-opacity="0.77811104" stroke-width="1" target-height="141" target-width="122.97561" target-x="81.5122" target-y="1"/></g><g node-id="170"><path d="M 219.50 47.00 L 280.55 82.25 L 280.55 152.75 L 219.50 188.00 L 158.45 152.75 L 158.45 82.25 Z" fill="url(#linearGradient-1)" fill-opacity="0.07781111" fill-rule="evenodd" group-id="1,2,16" id="多边形复制" node-id="62" stroke="url(#linearGradient-2)" stroke-linecap="butt" stroke-opacity="0.77811104" stroke-width="1" target-height="141" target-width="122.10957" target-x="158.4452" target-y="47"/></g><g node-id="171"><path d="M 82.00 36.00 L 143.00 71.33 L 143.00 142.00" fill="none" group-id="1,2,17" id="路径-55" node-id="63" stroke="url(#linearGradient-5)" stroke-dasharray="8 8" stroke-linecap="round" stroke-opacity="0.27269346" stroke-width="2" target-height="106" target-width="61" target-x="82" target-y="36"/></g><g node-id="172"><path d="M 158.00 83.00 L 219.00 118.00 L 219.00 188.00" fill="none" group-id="1,2,18" id="路径-55复制" node-id="64" stroke="url(#linearGradient-9)" stroke-dasharray="8 8" stroke-linecap="round" stroke-opacity="0.27269346" stroke-width="2" target-height="105" target-width="61" target-x="158" target-y="83"/></g><g node-id="173"><path d="M 143.00 72.00 L 204.00 36.00" fill="none" group-id="1,2,19" id="路径-56" node-id="65" stroke="url(#linearGradient-10)" stroke-dasharray="8 8" stroke-linecap="round" stroke-opacity="0.27269346" stroke-width="2" target-height="36" target-width="61" target-x="143" target-y="36"/></g><g node-id="174"><path d="M 219.00 118.00 L 280.00 83.00" fill="none" group-id="1,2,20" id="路径-56复制" node-id="66" stroke="url(#linearGradient-8)" stroke-dasharray="8 8" stroke-linecap="round" stroke-opacity="0.27269346" stroke-width="2" target-height="35" target-width="61" target-x="219" target-y="83"/></g><path d="M 143.00 83.00 L 204.49 118.25 L 204.49 188.75 L 143.00 224.00 L 81.51 188.75 L 81.51 118.25 Z" fill="url(#linearGradient-3)" fill-rule="evenodd" group-id="1,2" id="多边形复制-6" node-id="67" stroke="none" target-height="141" target-width="122.97561" target-x="81.5122" target-y="83"/><path d="M 143.00 83.00 L 204.00 118.00 L 143.00 153.00 L 82.00 118.00 Z" fill="url(#linearGradient-11)" fill-rule="evenodd" group-id="1,2" id="多边形复制-8" node-id="68" stroke="none" target-height="70" target-width="122" target-x="82" target-y="83"/><path d="M 204.00 118.00 L 204.00 188.67 L 143.00 224.00 L 143.00 153.33 Z" fill="url(#linearGradient-12)" fill-rule="evenodd" group-id="1,2" id="多边形复制-7" node-id="69" stroke="none" target-height="106" target-width="61" target-x="143" target-y="118"/><path d="M 130.00 136.00 L 156.00 136.00 L 156.00 147.91 L 162.13 148.94 L 162.13 162.61 L 156.00 164.25 L 156.00 179.00 L 130.00 179.00 L 130.00 164.14 L 124.00 162.61 L 124.00 148.72 L 130.00 146.56 Z" fill="url(#linearGradient-13)" fill-rule="evenodd" group-id="1,2" hidden="true" id="矩形" node-id="70" stroke="none" target-height="43" target-width="38.12596" target-x="124" target-y="136" visibility="hidden"/><path d="M 157.60 146.95 L 157.60 135.94 L 157.37 134.78 L 156.75 133.86 L 155.83 133.23 L 154.69 133.00 L 131.39 133.00 L 130.24 133.23 L 129.33 133.86 L 128.71 134.78 L 128.47 135.94 L 128.47 146.95 L 123.04 146.95 L 123.04 165.30 L 128.47 165.30 L 128.47 177.04 L 128.71 178.20 L 129.33 179.12 L 130.24 179.75 L 131.39 179.98 L 154.69 179.98 L 155.83 179.75 L 156.75 179.12 L 157.37 178.20 L 157.60 177.04 L 157.60 165.30 L 162.98 165.30 L 162.98 146.95 L 157.60 146.95 Z M 159.63 150.58 L 159.63 154.58 L 150.78 154.58 L 150.78 150.58 L 159.63 150.58 L 159.63 150.58 Z M 154.69 136.67 L 154.69 146.95 L 131.39 146.95 L 131.39 136.67 L 154.69 136.67 L 154.69 136.67 Z M 144.23 154.37 L 145.83 154.37 L 145.76 156.06 L 146.55 158.10 L 147.62 159.52 L 148.96 160.45 L 147.71 161.97 L 146.68 161.12 L 145.84 160.01 L 145.18 158.62 L 144.45 160.06 L 143.47 161.23 L 142.21 162.15 L 141.08 160.75 L 142.47 159.75 L 143.45 158.41 L 144.06 156.66 L 144.23 154.37 L 144.23 154.37 Z M 148.01 155.57 L 145.97 154.42 L 144.31 153.18 L 142.98 151.83 L 141.81 153.05 L 140.09 154.37 L 141.34 154.37 L 141.15 156.70 L 143.15 158.04 L 142.14 159.47 L 142.14 159.47 L 140.77 158.27 L 140.13 159.74 L 139.30 160.95 L 138.25 161.93 L 137.03 160.40 L 138.14 159.42 L 138.97 158.17 L 139.51 156.60 L 139.73 154.61 L 137.99 155.63 L 137.01 154.07 L 139.44 152.82 L 141.13 151.52 L 142.24 150.17 L 144.28 150.17 L 143.98 150.54 L 145.21 151.81 L 146.85 152.92 L 148.98 153.88 L 148.01 155.57 L 148.01 155.57 Z M 136.72 154.89 L 135.36 156.32 L 133.44 154.10 L 131.70 151.09 L 133.26 150.35 L 134.82 152.89 L 136.72 154.89 L 136.72 154.89 Z M 128.25 150.47 L 129.88 151.17 L 128.88 153.07 L 127.63 154.83 L 126.12 156.44 L 124.93 155.04 L 126.84 152.93 L 128.25 150.47 L 128.25 150.47 Z M 127.79 161.34 L 126.56 161.56 L 125.82 159.94 L 126.63 159.24 L 127.96 157.49 L 129.99 154.16 L 131.75 154.95 L 129.78 157.86 L 128.44 159.56 L 132.92 159.41 L 131.40 157.32 L 132.82 156.42 L 136.18 160.95 L 134.62 162.04 L 134.62 162.04 L 133.99 161.02 L 127.79 161.34 L 127.79 161.34 Z M 143.04 178.51 L 142.47 178.40 L 142.01 178.08 L 141.70 177.62 L 141.58 177.04 L 141.70 176.47 L 142.01 176.01 L 142.47 175.69 L 143.04 175.58 L 143.61 175.69 L 144.07 176.01 L 144.38 176.47 L 144.49 177.04 L 144.38 177.62 L 144.07 178.08 L 143.61 178.40 L 143.04 178.51 Z M 154.69 174.11 L 131.39 174.11 L 131.39 165.30 L 154.69 165.30 L 154.69 174.11 L 154.69 174.11 Z M 161.10 156.72 L 152.90 156.72 L 152.78 157.48 L 159.68 157.48 L 159.44 160.09 L 159.22 160.90 L 158.77 161.43 L 158.13 161.75 L 157.27 161.87 L 153.87 161.89 L 153.43 160.18 L 156.12 160.32 L 157.21 160.24 L 157.65 159.96 L 157.83 158.92 L 150.84 158.92 L 151.19 156.72 L 149.27 156.72 L 149.27 155.26 L 161.10 155.26 L 161.10 156.72 L 161.10 156.72 Z" fill="#b6e8fd" fill-rule="nonzero" group-id="1,2,21,22" hidden="true" id="形状" node-id="73" stroke="none" target-height="46.9805" target-width="39.94185" target-x="123.03958" target-y="133.00026" visibility="hidden"/><path d="M 152.50 152.01 L 157.92 152.01 L 157.92 153.15 L 152.50 153.15 Z" fill="#b6e8fd" fill-rule="nonzero" group-id="1,2,21,22" hidden="true" id="路径" node-id="74" stroke="none" target-height="1.140564" target-width="5.4189453" target-x="152.49637" target-y="152.00598" visibility="hidden"/></g></g></svg>